<svg width="105" height="20" viewBox="0 0 105 20" fill="none" xmlns="http://www.w3.org/2000/svg">
<path d="M6.6582 10.9121H7.65625C7.65625 11.6276 7.45117 12.1654 7.04102 12.5254C6.63542 12.8809 6.08398 13.0586 5.38672 13.0586C4.90365 13.0586 4.48438 12.9469 4.12891 12.7236C3.77799 12.5003 3.50456 12.1904 3.30859 11.7939C3.11719 11.3975 3.02148 10.9372 3.02148 10.4131V9.62695C3.02148 9.10286 3.11719 8.64258 3.30859 8.24609C3.50456 7.84961 3.77799 7.53971 4.12891 7.31641C4.48438 7.0931 4.90365 6.98145 5.38672 6.98145C6.08398 6.98145 6.6377 7.15918 7.04785 7.51465C7.45801 7.87012 7.66309 8.4056 7.66309 9.12109H6.66504C6.66504 8.66992 6.55566 8.34635 6.33691 8.15039C6.12272 7.95443 5.80599 7.85645 5.38672 7.85645C5.08594 7.85645 4.83301 7.93164 4.62793 8.08203C4.42285 8.23242 4.2679 8.44206 4.16309 8.71094C4.05827 8.97526 4.00586 9.27832 4.00586 9.62012V10.4131C4.00586 10.7594 4.05827 11.0671 4.16309 11.3359C4.2679 11.6003 4.42285 11.8076 4.62793 11.958C4.83301 12.1084 5.08594 12.1836 5.38672 12.1836C5.80599 12.1836 6.12272 12.0856 6.33691 11.8896C6.55111 11.6937 6.6582 11.3678 6.6582 10.9121ZM1.41504 10.0166C1.41504 10.6227 1.51986 11.1878 1.72949 11.7119C1.93913 12.236 2.23079 12.694 2.60449 13.0859C2.97819 13.4779 3.41113 13.7832 3.90332 14.002C4.39551 14.2207 4.92188 14.3301 5.48242 14.3301C6.04297 14.3301 6.56706 14.2207 7.05469 14.002C7.54688 13.7832 7.97754 13.4779 8.34668 13.0859C8.72038 12.694 9.01204 12.236 9.22168 11.7119C9.43132 11.1878 9.53613 10.6227 9.53613 10.0166C9.53613 9.40592 9.43132 8.84082 9.22168 8.32129C9.01204 7.80176 8.72038 7.34831 8.34668 6.96094C7.97754 6.56901 7.54688 6.26595 7.05469 6.05176C6.56706 5.83301 6.04297 5.72363 5.48242 5.72363C4.92188 5.72363 4.39551 5.83301 3.90332 6.05176C3.41113 6.26595 2.97819 6.56901 2.60449 6.96094C2.23079 7.34831 1.93913 7.80176 1.72949 8.32129C1.51986 8.84082 1.41504 9.40592 1.41504 10.0166ZM0.628906 10.0166C0.628906 9.29199 0.754232 8.61979 1.00488 8C1.25553 7.38021 1.60417 6.84017 2.05078 6.37988C2.4974 5.91504 3.01237 5.55501 3.5957 5.2998C4.18359 5.04004 4.8125 4.91016 5.48242 4.91016C6.15234 4.91016 6.77897 5.04004 7.3623 5.2998C7.9502 5.55501 8.46517 5.91504 8.90723 6.37988C9.35384 6.84017 9.70247 7.38021 9.95312 8C10.2038 8.61979 10.3291 9.29199 10.3291 10.0166C10.3291 10.7412 10.2038 11.4134 9.95312 12.0332C9.70247 12.653 9.35384 13.1976 8.90723 13.667C8.46517 14.1318 7.9502 14.4941 7.3623 14.7539C6.77897 15.0137 6.15234 15.1436 5.48242 15.1436C4.8125 15.1436 4.18359 15.0137 3.5957 14.7539C3.01237 14.4941 2.4974 14.1318 2.05078 13.667C1.60417 13.1976 1.25553 12.653 1.00488 12.0332C0.754232 11.4134 0.628906 10.7412 0.628906 10.0166ZM21.8271 13.9609V15H15.3125V14.0908L18.5732 10.4609C18.9743 10.0143 19.2842 9.63607 19.5029 9.32617C19.7262 9.01172 19.8812 8.73145 19.9678 8.48535C20.0589 8.2347 20.1045 7.97949 20.1045 7.71973C20.1045 7.3916 20.0361 7.09538 19.8994 6.83105C19.7673 6.56217 19.5713 6.34798 19.3115 6.18848C19.0518 6.02897 18.7373 5.94922 18.3682 5.94922C17.9261 5.94922 17.557 6.03581 17.2607 6.20898C16.9691 6.3776 16.7503 6.61458 16.6045 6.91992C16.4587 7.22526 16.3857 7.57617 16.3857 7.97266H15.1211C15.1211 7.41211 15.2441 6.89941 15.4902 6.43457C15.7363 5.96973 16.1009 5.60059 16.584 5.32715C17.0671 5.04915 17.6618 4.91016 18.3682 4.91016C18.9971 4.91016 19.5348 5.02181 19.9814 5.24512C20.4281 5.46387 20.7699 5.77376 21.0068 6.1748C21.2484 6.57129 21.3691 7.03613 21.3691 7.56934C21.3691 7.861 21.319 8.15723 21.2188 8.45801C21.123 8.75423 20.9886 9.05046 20.8154 9.34668C20.6468 9.6429 20.4486 9.93457 20.2207 10.2217C19.9974 10.5088 19.7581 10.7913 19.5029 11.0693L16.8369 13.9609H21.8271ZM29.4287 9.23047V10.748C29.4287 11.5638 29.3558 12.252 29.21 12.8125C29.0641 13.373 28.8545 13.8242 28.5811 14.166C28.3076 14.5078 27.9772 14.7562 27.5898 14.9111C27.207 15.0615 26.7741 15.1367 26.291 15.1367C25.9082 15.1367 25.555 15.0889 25.2314 14.9932C24.9079 14.8975 24.6162 14.7448 24.3564 14.5352C24.1012 14.321 23.8825 14.043 23.7002 13.7012C23.5179 13.3594 23.3789 12.9447 23.2832 12.457C23.1875 11.9694 23.1396 11.3997 23.1396 10.748V9.23047C23.1396 8.41471 23.2126 7.73112 23.3584 7.17969C23.5088 6.62826 23.7207 6.1862 23.9941 5.85352C24.2676 5.51628 24.5957 5.27474 24.9785 5.12891C25.3659 4.98307 25.7988 4.91016 26.2773 4.91016C26.6647 4.91016 27.0202 4.95801 27.3438 5.05371C27.6719 5.14486 27.9635 5.29297 28.2188 5.49805C28.474 5.69857 28.6904 5.96745 28.8682 6.30469C29.0505 6.63737 29.1895 7.04525 29.2852 7.52832C29.3809 8.01139 29.4287 8.57878 29.4287 9.23047ZM28.1572 10.9531V9.01855C28.1572 8.57194 28.1299 8.18001 28.0752 7.84277C28.0251 7.50098 27.9499 7.20931 27.8496 6.96777C27.7493 6.72624 27.6217 6.53027 27.4668 6.37988C27.3164 6.22949 27.141 6.12012 26.9404 6.05176C26.7445 5.97884 26.5234 5.94238 26.2773 5.94238C25.9766 5.94238 25.71 5.99935 25.4775 6.11328C25.2451 6.22266 25.0492 6.39811 24.8896 6.63965C24.7347 6.88118 24.6162 7.19792 24.5342 7.58984C24.4521 7.98177 24.4111 8.45801 24.4111 9.01855V10.9531C24.4111 11.3997 24.4362 11.7939 24.4863 12.1357C24.541 12.4775 24.6208 12.7738 24.7256 13.0244C24.8304 13.2705 24.958 13.4733 25.1084 13.6328C25.2588 13.7923 25.432 13.9108 25.6279 13.9883C25.8285 14.0612 26.0495 14.0977 26.291 14.0977C26.6009 14.0977 26.8721 14.0384 27.1045 13.9199C27.3369 13.8014 27.5306 13.6169 27.6855 13.3662C27.8451 13.111 27.9635 12.7852 28.041 12.3887C28.1185 11.9876 28.1572 11.5091 28.1572 10.9531ZM37.5771 13.9609V15H31.0625V14.0908L34.3232 10.4609C34.7243 10.0143 35.0342 9.63607 35.2529 9.32617C35.4762 9.01172 35.6312 8.73145 35.7178 8.48535C35.8089 8.2347 35.8545 7.97949 35.8545 7.71973C35.8545 7.3916 35.7861 7.09538 35.6494 6.83105C35.5173 6.56217 35.3213 6.34798 35.0615 6.18848C34.8018 6.02897 34.4873 5.94922 34.1182 5.94922C33.6761 5.94922 33.307 6.03581 33.0107 6.20898C32.7191 6.3776 32.5003 6.61458 32.3545 6.91992C32.2087 7.22526 32.1357 7.57617 32.1357 7.97266H30.8711C30.8711 7.41211 30.9941 6.89941 31.2402 6.43457C31.4863 5.96973 31.8509 5.60059 32.334 5.32715C32.8171 5.04915 33.4118 4.91016 34.1182 4.91016C34.7471 4.91016 35.2848 5.02181 35.7314 5.24512C36.1781 5.46387 36.5199 5.77376 36.7568 6.1748C36.9984 6.57129 37.1191 7.03613 37.1191 7.56934C37.1191 7.861 37.069 8.15723 36.9688 8.45801C36.873 8.75423 36.7386 9.05046 36.5654 9.34668C36.3968 9.6429 36.1986 9.93457 35.9707 10.2217C35.7474 10.5088 35.5081 10.7913 35.2529 11.0693L32.5869 13.9609H37.5771ZM45.6572 11.6504V12.6895H38.4658V11.9443L42.9229 5.04688H43.9551L42.8477 7.04297L39.9014 11.6504H45.6572ZM44.2695 5.04688V15H43.0049V5.04688H44.2695ZM51.0234 5.04688H52.3018L55.5625 13.1611L58.8164 5.04688H60.1016L56.0547 15H55.0566L51.0234 5.04688ZM50.6064 5.04688H51.7344L51.9189 11.1172V15H50.6064V5.04688ZM59.3838 5.04688H60.5117V15H59.1992V11.1172L59.3838 5.04688ZM65.707 15.1367C65.1921 15.1367 64.7249 15.0501 64.3057 14.877C63.891 14.6992 63.5332 14.4508 63.2324 14.1318C62.9362 13.8128 62.7083 13.4346 62.5488 12.9971C62.3893 12.5596 62.3096 12.0811 62.3096 11.5615V11.2744C62.3096 10.6729 62.3984 10.1374 62.5762 9.66797C62.7539 9.19401 62.9954 8.79297 63.3008 8.46484C63.6061 8.13672 63.9525 7.88835 64.3398 7.71973C64.7272 7.55111 65.1283 7.4668 65.543 7.4668C66.0716 7.4668 66.5273 7.55794 66.9102 7.74023C67.2975 7.92253 67.6143 8.17773 67.8604 8.50586C68.1064 8.82943 68.2887 9.21224 68.4072 9.6543C68.5257 10.0918 68.585 10.5703 68.585 11.0898V11.6572H63.0615V10.625H67.3203V10.5293C67.3021 10.2012 67.2337 9.88216 67.1152 9.57227C67.0013 9.26237 66.819 9.00716 66.5684 8.80664C66.3177 8.60612 65.9759 8.50586 65.543 8.50586C65.2559 8.50586 64.9915 8.56738 64.75 8.69043C64.5085 8.80892 64.3011 8.98665 64.1279 9.22363C63.9548 9.46061 63.8203 9.75 63.7246 10.0918C63.6289 10.4336 63.5811 10.8278 63.5811 11.2744V11.5615C63.5811 11.9124 63.6289 12.2428 63.7246 12.5527C63.8249 12.8581 63.9684 13.127 64.1553 13.3594C64.3467 13.5918 64.5768 13.7741 64.8457 13.9062C65.1191 14.0384 65.429 14.1045 65.7754 14.1045C66.222 14.1045 66.6003 14.0133 66.9102 13.8311C67.2201 13.6488 67.4912 13.4049 67.7236 13.0996L68.4893 13.708C68.3298 13.9495 68.127 14.1797 67.8809 14.3984C67.6348 14.6172 67.3317 14.7949 66.9717 14.9316C66.6162 15.0684 66.1947 15.1367 65.707 15.1367ZM73.1309 15.1367C72.6159 15.1367 72.1488 15.0501 71.7295 14.877C71.3148 14.6992 70.957 14.4508 70.6562 14.1318C70.36 13.8128 70.1322 13.4346 69.9727 12.9971C69.8132 12.5596 69.7334 12.0811 69.7334 11.5615V11.2744C69.7334 10.6729 69.8223 10.1374 70 9.66797C70.1777 9.19401 70.4193 8.79297 70.7246 8.46484C71.0299 8.13672 71.3763 7.88835 71.7637 7.71973C72.151 7.55111 72.5521 7.4668 72.9668 7.4668C73.4954 7.4668 73.9512 7.55794 74.334 7.74023C74.7214 7.92253 75.0381 8.17773 75.2842 8.50586C75.5303 8.82943 75.7126 9.21224 75.8311 9.6543C75.9495 10.0918 76.0088 10.5703 76.0088 11.0898V11.6572H70.4854V10.625H74.7441V10.5293C74.7259 10.2012 74.6576 9.88216 74.5391 9.57227C74.4251 9.26237 74.2428 9.00716 73.9922 8.80664C73.7415 8.60612 73.3997 8.50586 72.9668 8.50586C72.6797 8.50586 72.4154 8.56738 72.1738 8.69043C71.9323 8.80892 71.7249 8.98665 71.5518 9.22363C71.3786 9.46061 71.2441 9.75 71.1484 10.0918C71.0527 10.4336 71.0049 10.8278 71.0049 11.2744V11.5615C71.0049 11.9124 71.0527 12.2428 71.1484 12.5527C71.2487 12.8581 71.3923 13.127 71.5791 13.3594C71.7705 13.5918 72.0007 13.7741 72.2695 13.9062C72.543 14.0384 72.8529 14.1045 73.1992 14.1045C73.6458 14.1045 74.0241 14.0133 74.334 13.8311C74.6439 13.6488 74.915 13.4049 75.1475 13.0996L75.9131 13.708C75.7536 13.9495 75.5508 14.1797 75.3047 14.3984C75.0586 14.6172 74.7555 14.7949 74.3955 14.9316C74.04 15.0684 73.6185 15.1367 73.1309 15.1367ZM80.582 7.60352V8.57422H76.583V7.60352H80.582ZM77.9365 5.80566H79.2012V13.168C79.2012 13.4186 79.2399 13.6077 79.3174 13.7354C79.3949 13.863 79.4951 13.9473 79.6182 13.9883C79.7412 14.0293 79.8734 14.0498 80.0146 14.0498C80.1195 14.0498 80.2288 14.0407 80.3428 14.0225C80.4613 13.9997 80.5501 13.9814 80.6094 13.9678L80.6162 15C80.516 15.0319 80.3838 15.0615 80.2197 15.0889C80.0602 15.1208 79.8665 15.1367 79.6387 15.1367C79.3288 15.1367 79.0439 15.0752 78.7842 14.9521C78.5244 14.8291 78.3171 14.624 78.1621 14.3369C78.0117 14.0452 77.9365 13.6533 77.9365 13.1611V5.80566ZM86.5908 13.291V7.60352H87.8623V15H86.6523L86.5908 13.291ZM86.8301 11.7324L87.3564 11.7188C87.3564 12.2109 87.304 12.6667 87.1992 13.0859C87.099 13.5007 86.9349 13.8607 86.707 14.166C86.4792 14.4714 86.1807 14.7106 85.8115 14.8838C85.4424 15.0524 84.9935 15.1367 84.4648 15.1367C84.1048 15.1367 83.7744 15.0843 83.4736 14.9795C83.1774 14.8747 82.9222 14.7129 82.708 14.4941C82.4938 14.2754 82.3275 13.9906 82.209 13.6396C82.0951 13.2887 82.0381 12.8672 82.0381 12.375V7.60352H83.3027V12.3887C83.3027 12.7214 83.3392 12.9971 83.4121 13.2158C83.4896 13.43 83.5921 13.6009 83.7197 13.7285C83.8519 13.8516 83.9977 13.9382 84.1572 13.9883C84.3213 14.0384 84.4899 14.0635 84.6631 14.0635C85.2008 14.0635 85.627 13.9609 85.9414 13.7559C86.2559 13.5462 86.4814 13.266 86.6182 12.915C86.7594 12.5596 86.8301 12.1654 86.8301 11.7324ZM91.0547 9.02539V17.8438H89.7832V7.60352H90.9453L91.0547 9.02539ZM96.0381 11.2402V11.3838C96.0381 11.9215 95.9743 12.4206 95.8467 12.8809C95.7191 13.3366 95.5322 13.7331 95.2861 14.0703C95.0446 14.4076 94.7461 14.6696 94.3906 14.8564C94.0352 15.0433 93.6273 15.1367 93.167 15.1367C92.6976 15.1367 92.2829 15.0592 91.9229 14.9043C91.5628 14.7493 91.2575 14.5238 91.0068 14.2275C90.7562 13.9313 90.5557 13.5758 90.4053 13.1611C90.2594 12.7464 90.1592 12.2793 90.1045 11.7598V10.9941C90.1592 10.4473 90.2617 9.95736 90.4121 9.52441C90.5625 9.09147 90.7607 8.72233 91.0068 8.41699C91.2575 8.1071 91.5605 7.8724 91.916 7.71289C92.2715 7.54883 92.6816 7.4668 93.1465 7.4668C93.6113 7.4668 94.0238 7.55794 94.3838 7.74023C94.7438 7.91797 95.0469 8.17318 95.293 8.50586C95.5391 8.83854 95.7236 9.2373 95.8467 9.70215C95.9743 10.1624 96.0381 10.6751 96.0381 11.2402ZM94.7666 11.3838V11.2402C94.7666 10.8711 94.7279 10.5247 94.6504 10.2012C94.5729 9.87305 94.4521 9.58594 94.2881 9.33984C94.1286 9.08919 93.9235 8.89323 93.6729 8.75195C93.4222 8.60612 93.1237 8.5332 92.7773 8.5332C92.4583 8.5332 92.1803 8.58789 91.9434 8.69727C91.7109 8.80664 91.5127 8.95475 91.3486 9.1416C91.1846 9.32389 91.0501 9.53353 90.9453 9.77051C90.8451 10.0029 90.7699 10.2445 90.7197 10.4951V12.2656C90.8109 12.5846 90.9385 12.8854 91.1025 13.168C91.2666 13.446 91.4854 13.6715 91.7588 13.8447C92.0322 14.0133 92.3763 14.0977 92.791 14.0977C93.1328 14.0977 93.4268 14.027 93.6729 13.8857C93.9235 13.7399 94.1286 13.5417 94.2881 13.291C94.4521 13.0404 94.5729 12.7533 94.6504 12.4297C94.7279 12.1016 94.7666 11.7529 94.7666 11.3838Z" fill="white"/>
</svg>
